<?xml version="1.0" encoding="UTF-8" standalone="no"?>
<!-- Created with Inkscape (http://www.inkscape.org/) -->

<svg
   width="177"
   height="24"
   viewBox="0 0 46.831249 6.35"
   version="1.1"
   id="svg1"
   xml:space="preserve"
   inkscape:version="1.4 (e7c3feb1, 2024-10-09)"
   sodipodi:docname="ARMSX2 Docs page logo.svg"
   xmlns:inkscape="http://www.inkscape.org/namespaces/inkscape"
   xmlns:sodipodi="http://sodipodi.sourceforge.net/DTD/sodipodi-0.dtd"
   xmlns:xlink="http://www.w3.org/1999/xlink"
   xmlns="http://www.w3.org/2000/svg"
   xmlns:svg="http://www.w3.org/2000/svg"><sodipodi:namedview
     id="namedview1"
     pagecolor="#505050"
     bordercolor="#ffffff"
     borderopacity="1"
     inkscape:showpageshadow="0"
     inkscape:pageopacity="0"
     inkscape:pagecheckerboard="1"
     inkscape:deskcolor="#505050"
     inkscape:document-units="mm"
     inkscape:zoom="4"
     inkscape:cx="113.125"
     inkscape:cy="-35.75"
     inkscape:window-width="2560"
     inkscape:window-height="1359"
     inkscape:window-x="0"
     inkscape:window-y="25"
     inkscape:window-maximized="0"
     inkscape:current-layer="layer1" /><defs
     id="defs1"><linearGradient
       id="linearGradient4"
       inkscape:collect="always"><stop
         style="stop-color:#8090b3;stop-opacity:1;"
         offset="0"
         id="stop3" /><stop
         style="stop-color:#475a85;stop-opacity:1;"
         offset="1"
         id="stop4" /></linearGradient><linearGradient
       id="linearGradient14"
       inkscape:collect="always"><stop
         style="stop-color:#4d5d80;stop-opacity:1;"
         offset="0"
         id="stop14" /><stop
         style="stop-color:#242d42;stop-opacity:1;"
         offset="1"
         id="stop15" /></linearGradient><style
       id="style1">
      .st0 {
        fill: #bdbdbd;
        stroke: url(#linear-gradient);
      }

      .st0, .st1 {
        stroke-miterlimit: 10;
        stroke-opacity: 1;
        stroke-width: 4px;
      }

      .st1 {
        fill: none;
        stroke: url(#linear-gradient1);
      }
    </style><linearGradient
       id="linear-gradient"
       x1="512"
       y1="1196.6"
       x2="512"
       y2="160.9"
       gradientUnits="userSpaceOnUse"><stop
         offset="0"
         stop-color="#000"
         stop-opacity=".2"
         id="stop1" /><stop
         offset="1"
         stop-color="#000"
         stop-opacity=".8"
         id="stop2" /></linearGradient><linearGradient
       id="linear-gradient1"
       x1="512"
       y1="1194.3"
       x2="512"
       y2="307.2"
       xlink:href="#linear-gradient" /><linearGradient
       inkscape:collect="always"
       xlink:href="#linearGradient14"
       id="linearGradient8"
       gradientUnits="userSpaceOnUse"
       gradientTransform="matrix(1.191105,0,0,1.191105,-97.845714,-239.84381)"
       x1="740.81274"
       y1="773.95093"
       x2="941.85291"
       y2="1061.0684" /><linearGradient
       inkscape:collect="always"
       xlink:href="#linearGradient4"
       id="linearGradient1"
       gradientUnits="userSpaceOnUse"
       gradientTransform="matrix(-1.191105,0,0,1.191105,1121.8457,-239.84381)"
       x1="740.81274"
       y1="773.95093"
       x2="941.85291"
       y2="1061.0684" /><linearGradient
       id="linearGradient2"
       inkscape:collect="always"><stop
         style="stop-color:#000ae8;stop-opacity:1;"
         offset="0.24871355"
         id="stop2-7" /><stop
         style="stop-color:#31ffce;stop-opacity:1;"
         offset="0.75471699"
         id="stop3-6" /></linearGradient><linearGradient
       inkscape:collect="always"
       xlink:href="#linearGradient2"
       id="linearGradient3"
       x1="2444.562"
       y1="392.80182"
       x2="2444.562"
       y2="1826.2893"
       gradientUnits="userSpaceOnUse"
       gradientTransform="matrix(1.6413847,0,0,1.6413847,-1348.9198,-705.5909)" /></defs><g
     inkscape:groupmode="layer"
     id="layer5"
     inkscape:label="Layer 2"
     style="display:none"><rect
       style="fill:#0f172a;fill-opacity:1;stroke:none;stroke-width:2.117;stroke-linecap:round;stroke-linejoin:round;stroke-dasharray:none;stroke-opacity:1;paint-order:stroke fill markers"
       id="rect3"
       width="46.831249"
       height="6.3499999"
       x="0"
       y="0" /></g><g
     inkscape:label="Layer 1"
     inkscape:groupmode="layer"
     id="layer1"><path
       style="font-weight:600;font-stretch:condensed;font-size:4.1622px;font-family:roboto;-inkscape-font-specification:'roboto Semi-Bold Condensed';fill:#ffffff;stroke-width:2.27064;stroke-linecap:round;stroke-linejoin:round;paint-order:stroke fill markers"
       d="m 39.655906,6.3146935 h -0.518243 l 0.0041,-0.4532083 h 0.514178 q 0.225588,0 0.355656,-0.081293 0.132102,-0.083325 0.186974,-0.2581052 0.05691,-0.1747799 0.05691,-0.451176 V 4.5973795 q 0,-0.2113617 -0.03048,-0.3597214 -0.03049,-0.150392 -0.09958,-0.2438789 -0.0691,-0.093487 -0.180877,-0.138198 Q 39.832718,3.81087 39.6681,3.81087 H 39.127501 V 3.3556294 H 39.6681 q 0.256073,0 0.46337,0.083325 0.207297,0.081293 0.355656,0.2398143 0.150392,0.1585212 0.229653,0.3922385 0.07926,0.231685 0.07926,0.5304366 V 5.070911 q 0,0.2987517 -0.07926,0.5304367 -0.07926,0.2316849 -0.229653,0.3902062 -0.148359,0.1585213 -0.359721,0.2418466 -0.209329,0.081293 -0.471499,0.081293 z M 39.450641,3.3556294 V 6.3146935 H 38.905978 V 3.3556294 Z M 41.161858,5.296499 V 5.1359454 q 0,-0.2581052 0.063,-0.4552406 0.063,-0.1991678 0.178844,-0.3333012 0.115843,-0.1341334 0.276397,-0.2032324 0.162586,-0.069099 0.359721,-0.069099 0.2012,0 0.361754,0.069099 0.162586,0.069099 0.278428,0.2032324 0.117875,0.1341334 0.178845,0.3333012 0.063,0.1971354 0.063,0.4552406 V 5.296499 q 0,0.2581052 -0.063,0.4552406 -0.06097,0.1971355 -0.178845,0.3333012 -0.115842,0.1341334 -0.278428,0.2032324 -0.160554,0.067067 -0.357689,0.067067 -0.197136,0 -0.359722,-0.067067 -0.160553,-0.069099 -0.278428,-0.2032324 -0.117875,-0.1361657 -0.180877,-0.3333012 -0.063,-0.1971354 -0.063,-0.4552406 z M 41.684165,5.1359454 V 5.296499 q 0,0.1605536 0.02439,0.2784284 0.02439,0.1158425 0.07113,0.1930708 0.04878,0.077228 0.113811,0.1158425 0.06707,0.036582 0.150392,0.036582 0.08942,0 0.156489,-0.036582 0.06707,-0.038614 0.111777,-0.1158425 0.04471,-0.077228 0.06707,-0.1930708 0.02236,-0.1178748 0.02236,-0.2784284 V 5.1359454 q 0,-0.156489 -0.02642,-0.2743638 -0.02439,-0.1178748 -0.07113,-0.1951031 -0.04674,-0.077228 -0.11381,-0.1158425 -0.06707,-0.040646 -0.150392,-0.040646 -0.08129,0 -0.146327,0.040646 -0.06504,0.038614 -0.113811,0.1158425 -0.04674,0.077228 -0.07113,0.1951031 -0.02439,0.1178748 -0.02439,0.2743638 z m 2.408304,0.7844772 q 0.08536,0 0.150392,-0.03455 0.06504,-0.036582 0.101617,-0.1138101 0.03658,-0.077228 0.03861,-0.2012001 h 0.491822 q -0.002,0.2398142 -0.107713,0.4166265 -0.103649,0.1768122 -0.278428,0.2723314 -0.172748,0.095519 -0.388174,0.095519 -0.219491,0 -0.38411,-0.069099 Q 43.553903,6.2151096 43.448223,6.0809762 43.342542,5.9448104 43.289701,5.7497073 43.236861,5.5546042 43.236861,5.3046283 V 5.1257838 q 0,-0.2499759 0.05284,-0.445079 0.05284,-0.1951031 0.158522,-0.3292365 0.10568,-0.1361658 0.268266,-0.2052648 0.162586,-0.071131 0.382077,-0.071131 0.233718,0 0.406465,0.097551 0.172748,0.097552 0.270299,0.2865578 0.09755,0.1869738 0.09958,0.4613375 h -0.491822 q -0.002,-0.1341334 -0.03455,-0.2235556 -0.03252,-0.091455 -0.09755,-0.1381981 -0.063,-0.048776 -0.160554,-0.048776 -0.105681,0 -0.172748,0.042679 -0.06503,0.040646 -0.09958,0.1199071 -0.03455,0.079261 -0.04878,0.1930708 -0.01219,0.1138101 -0.01219,0.2601375 v 0.1788445 q 0,0.150392 0.01219,0.2662345 0.01219,0.1138101 0.04674,0.1930708 0.03455,0.077228 0.09958,0.1178748 0.06707,0.038614 0.176812,0.038614 z m 2.125812,-0.1930708 q 0,-0.063002 -0.04065,-0.1117779 Q 46.13902,5.5667981 46.053662,5.51599 45.968305,5.4651819 45.828074,5.4062445 45.67565,5.3452748 45.557775,5.2822728 45.441933,5.2172384 45.36064,5.1400101 45.279347,5.0607494 45.2387,4.9611655 q -0.04065,-0.1016162 -0.04065,-0.2337173 0,-0.1361657 0.05081,-0.2540405 0.05081,-0.1178748 0.146327,-0.207297 0.09755,-0.089422 0.23575,-0.1402304 0.138198,-0.050808 0.310946,-0.050808 0.241846,0 0.414594,0.08739 0.17478,0.085358 0.266234,0.2398143 0.09349,0.1544566 0.09349,0.3556567 h -0.520275 q 0,-0.077228 -0.02642,-0.1402304 -0.02642,-0.063002 -0.08333,-0.099584 -0.05691,-0.038614 -0.146328,-0.038614 -0.0752,0 -0.130068,0.030485 -0.05284,0.030485 -0.08129,0.081293 -0.02845,0.048776 -0.02845,0.1117779 0,0.048776 0.01829,0.085358 0.02032,0.036582 0.063,0.071131 0.04268,0.032517 0.11381,0.069099 0.07316,0.03455 0.180877,0.081293 0.219491,0.083325 0.363786,0.1768122 0.144295,0.091455 0.215426,0.2154264 0.07113,0.1219394 0.07113,0.3048486 0,0.144295 -0.05487,0.2642022 -0.05487,0.1199071 -0.158521,0.207297 -0.101617,0.085358 -0.245912,0.1321011 -0.144295,0.044711 -0.323139,0.044711 -0.26217,0 -0.443047,-0.1036485 -0.178844,-0.1036485 -0.272331,-0.2682668 -0.09145,-0.1646183 -0.09145,-0.3434628 h 0.499952 q 0.0041,0.1178748 0.04674,0.1869738 0.04471,0.067067 0.115843,0.093487 0.07113,0.02642 0.152424,0.02642 0.08942,0 0.14836,-0.024388 0.05894,-0.02642 0.08739,-0.075196 0.03048,-0.050808 0.03048,-0.1199071 z"
       id="text4"
       aria-label="Docs" /><g
       id="layer1-2"
       inkscape:label="Layer 1"
       transform="matrix(0.00703557,0,0,0.00703557,-1.9379107,-0.68171092)"><path
         style="display:inline;fill:#acb6d2;fill-opacity:1;stroke:none;stroke-width:11.2468;stroke-linecap:round;stroke-linejoin:round;stroke-opacity:0.996117"
         d="M 748.55526,233.4484 512,96.89491 275.44474,233.4484 512,370.00189 Z"
         id="path2" /><path
         style="display:inline;fill:url(#linearGradient8);fill-opacity:1;stroke:none;stroke-width:11.2468;stroke-linecap:round;stroke-linejoin:round;stroke-opacity:0.996117"
         d="M 748.55526,233.4484 512,370.00189 V 1404.7822 l 236.55526,-136.5534 z"
         id="path4"
         sodipodi:nodetypes="ccccc" /><path
         style="display:inline;fill:url(#linearGradient1);fill-opacity:1;stroke:none;stroke-width:11.2468;stroke-linecap:round;stroke-linejoin:round;stroke-opacity:0.996117"
         d="M 275.44474,233.4484 512,370.00189 V 1404.7822 L 275.44474,1268.2288 Z"
         id="path1"
         sodipodi:nodetypes="ccccc" /></g><g
       inkscape:label="Layer 1"
       id="layer1-0"
       transform="matrix(0.00870613,0,0,0.00870613,4.419715,-5.3306968)"><path
         style="font-weight:900;font-size:630.291px;font-family:'Noto Sans';-inkscape-font-specification:'Noto Sans Heavy';fill:#ffffff;stroke-width:1.64138"
         d="m 324.59987,1341.6635 -22.06018,-84.459 H 156.31217 l -22.69047,84.459 H 0 L 146.85781,889.74479 H 308.8426 l 148.74868,451.91871 z m -66.81084,-257.7891 q -3.15146,-11.9755 -8.82408,-34.0357 -5.67262,-22.6905 -11.34524,-46.6415 -5.67262,-23.95108 -8.82407,-39.07807 -2.52117,15.12699 -8.19378,37.81747 -5.04233,22.6905 -10.71495,44.7507 -5.04233,22.0601 -8.82408,37.1871 l -19.53902,73.7441 h 95.80424 z M 653.61169,891.63567 q 61.13823,0 101.47686,15.12698 40.96891,15.12699 61.13822,44.75066 20.79961,28.99339 20.79961,73.11379 0,27.1025 -9.45437,49.793 -8.82407,22.6904 -25.84193,40.3386 -17.01786,17.6481 -40.96891,30.8842 L 891.8617,1341.6635 H 753.82796 l -95.17394,-163.8757 h -30.88426 v 163.8757 H 506.12359 V 891.63567 Z m -1.89087,92.02249 h -23.95106 v 102.73744 h 22.69048 q 27.7328,0 45.38095,-11.9755 18.27844,-12.6059 18.27844,-44.1204 0,-14.4967 -6.30291,-24.5814 -6.30291,-10.71491 -20.16931,-16.38753 -13.86641,-5.67261 -35.92659,-5.67261 z m 477.13028,358.00534 -92.0225,-323.9696 h -2.5211 q 1.2606,12.6058 2.5211,34.0357 1.2606,21.4299 2.5212,46.6415 1.2606,24.5814 1.2606,47.9021 v 195.3903 H 932.83063 V 891.63567 h 161.98477 l 93.9134,319.55753 h 2.5211 l 92.0225,-319.55753 h 161.9848 v 450.02783 h -111.5615 v -197.2811 q 0,-21.4299 0.6303,-45.381 0.6303,-24.5813 1.8909,-46.0112 1.2606,-22.0602 1.8908,-34.666 h -2.5211 l -90.7619,323.3393 z"
         id="text1"
         aria-label="ARM" /><path
         style="font-size:1049.84px;font-family:'BTSE + PS2 FONT';-inkscape-font-specification:'BTSE + PS2 FONT';fill:url(#linearGradient3);stroke-width:2.73396"
         d="m 1487.0947,1341.6635 h 401.8919 V 939.77159 H 2240.642 V 889.53511 H 1838.7501 V 1291.427 h -351.6554 z m 799.6828,-452.12839 h 100.473 l 653.0743,452.12839 h -100.473 z m 0,452.12839 h 100.473 l 653.0743,-452.12839 h -100.473 z m 799.6828,-452.12839 v 50.23648 h 703.3108 V 1090.481 h -703.3108 v 251.1825 h 753.5473 v -50.2365 h -703.3108 v -150.7095 h 703.3108 V 889.53511 Z"
         id="text2"
         aria-label="SX2" /></g></g></svg>
