<?xml version="1.0" encoding="UTF-8" standalone="no"?>
<!-- Created with Inkscape (http://www.inkscape.org/) -->

<svg
   width="177"
   height="24"
   viewBox="0 0 46.831249 6.35"
   version="1.1"
   id="svg1"
   xml:space="preserve"
   inkscape:version="1.4 (e7c3feb1, 2024-10-09)"
   sodipodi:docname="ARMSX2 Docs page logo.svg"
   xmlns:inkscape="http://www.inkscape.org/namespaces/inkscape"
   xmlns:sodipodi="http://sodipodi.sourceforge.net/DTD/sodipodi-0.dtd"
   xmlns:xlink="http://www.w3.org/1999/xlink"
   xmlns="http://www.w3.org/2000/svg"
   xmlns:svg="http://www.w3.org/2000/svg"><sodipodi:namedview
     id="namedview1"
     pagecolor="#505050"
     bordercolor="#ffffff"
     borderopacity="1"
     inkscape:showpageshadow="0"
     inkscape:pageopacity="0"
     inkscape:pagecheckerboard="1"
     inkscape:deskcolor="#505050"
     inkscape:document-units="mm"
     inkscape:zoom="5.8526071"
     inkscape:cx="93.035462"
     inkscape:cy="24.433556"
     inkscape:window-width="2560"
     inkscape:window-height="1359"
     inkscape:window-x="0"
     inkscape:window-y="25"
     inkscape:window-maximized="0"
     inkscape:current-layer="layer1" /><defs
     id="defs1"><linearGradient
       id="linearGradient4"
       inkscape:collect="always"><stop
         style="stop-color:#8090b3;stop-opacity:1;"
         offset="0"
         id="stop3" /><stop
         style="stop-color:#475a85;stop-opacity:1;"
         offset="1"
         id="stop4" /></linearGradient><linearGradient
       id="linearGradient14"
       inkscape:collect="always"><stop
         style="stop-color:#4d5d80;stop-opacity:1;"
         offset="0"
         id="stop14" /><stop
         style="stop-color:#242d42;stop-opacity:1;"
         offset="1"
         id="stop15" /></linearGradient><style
       id="style1">
      .st0 {
        fill: #bdbdbd;
        stroke: url(#linear-gradient);
      }

      .st0, .st1 {
        stroke-miterlimit: 10;
        stroke-opacity: 1;
        stroke-width: 4px;
      }

      .st1 {
        fill: none;
        stroke: url(#linear-gradient1);
      }
    </style><linearGradient
       id="linear-gradient"
       x1="512"
       y1="1196.6"
       x2="512"
       y2="160.9"
       gradientUnits="userSpaceOnUse"><stop
         offset="0"
         stop-color="#000"
         stop-opacity=".2"
         id="stop1" /><stop
         offset="1"
         stop-color="#000"
         stop-opacity=".8"
         id="stop2" /></linearGradient><linearGradient
       id="linear-gradient1"
       x1="512"
       y1="1194.3"
       x2="512"
       y2="307.2"
       xlink:href="#linear-gradient" /><linearGradient
       inkscape:collect="always"
       xlink:href="#linearGradient14"
       id="linearGradient8"
       gradientUnits="userSpaceOnUse"
       gradientTransform="matrix(1.191105,0,0,1.191105,-97.845714,-239.84381)"
       x1="740.81274"
       y1="773.95093"
       x2="941.85291"
       y2="1061.0684" /><linearGradient
       inkscape:collect="always"
       xlink:href="#linearGradient4"
       id="linearGradient1"
       gradientUnits="userSpaceOnUse"
       gradientTransform="matrix(-1.191105,0,0,1.191105,1121.8457,-239.84381)"
       x1="740.81274"
       y1="773.95093"
       x2="941.85291"
       y2="1061.0684" /><linearGradient
       id="linearGradient2"
       inkscape:collect="always"><stop
         style="stop-color:#000ae8;stop-opacity:1;"
         offset="0.24871355"
         id="stop2-7" /><stop
         style="stop-color:#31ffce;stop-opacity:1;"
         offset="0.75471699"
         id="stop3-6" /></linearGradient><linearGradient
       inkscape:collect="always"
       xlink:href="#linearGradient2"
       id="linearGradient3"
       x1="2444.562"
       y1="392.80182"
       x2="2444.562"
       y2="1826.2893"
       gradientUnits="userSpaceOnUse"
       gradientTransform="matrix(1.6413847,0,0,1.6413847,-1348.9198,-705.5909)" /></defs><g
     inkscape:groupmode="layer"
     id="layer5"
     inkscape:label="Layer 2"
     style="display:none"><rect
       style="fill:#0f172a;fill-opacity:1;stroke:none;stroke-width:2.117;stroke-linecap:round;stroke-linejoin:round;stroke-dasharray:none;stroke-opacity:1;paint-order:stroke fill markers"
       id="rect3"
       width="46.831249"
       height="6.3499999"
       x="0"
       y="0" /></g><g
     inkscape:label="Layer 1"
     inkscape:groupmode="layer"
     id="layer1"><g
       id="layer1-2"
       inkscape:label="Layer 1"
       transform="matrix(0.00801424,0,0,0.00801424,-0.94395729,-0.20111045)"><path
         style="display:inline;fill:#acb6d2;fill-opacity:1;stroke:none;stroke-width:11.2468;stroke-linecap:round;stroke-linejoin:round;stroke-opacity:0.996117"
         d="M 748.55526,233.4484 512,96.89491 275.44474,233.4484 512,370.00189 Z"
         id="path2" /><path
         style="display:inline;fill:url(#linearGradient8);fill-opacity:1;stroke:none;stroke-width:11.2468;stroke-linecap:round;stroke-linejoin:round;stroke-opacity:0.996117"
         d="M 748.55526,233.4484 512,370.00189 V 1404.7822 l 236.55526,-136.5534 z"
         id="path4"
         sodipodi:nodetypes="ccccc" /><path
         style="display:inline;fill:url(#linearGradient1);fill-opacity:1;stroke:none;stroke-width:11.2468;stroke-linecap:round;stroke-linejoin:round;stroke-opacity:0.996117"
         d="M 275.44474,233.4484 512,370.00189 V 1404.7822 L 275.44474,1268.2288 Z"
         id="path1"
         sodipodi:nodetypes="ccccc" /></g><g
       inkscape:label="Layer 1"
       id="layer1-0"
       transform="matrix(0.00846253,0,0,0.00846253,6.2265906,-6.2657924)"><path
         style="font-weight:900;font-size:630.291px;font-family:'Noto Sans';-inkscape-font-specification:'Noto Sans Heavy';fill:#ffffff;stroke-width:1.64138"
         d="m 324.59987,1341.6635 -22.06018,-84.459 H 156.31217 l -22.69047,84.459 H 0 L 146.85781,889.74479 H 308.8426 l 148.74868,451.91871 z m -66.81084,-257.7891 q -3.15146,-11.9755 -8.82408,-34.0357 -5.67262,-22.6905 -11.34524,-46.6415 -5.67262,-23.95108 -8.82407,-39.07807 -2.52117,15.12699 -8.19378,37.81747 -5.04233,22.6905 -10.71495,44.7507 -5.04233,22.0601 -8.82408,37.1871 l -19.53902,73.7441 h 95.80424 z M 653.61169,891.63567 q 61.13823,0 101.47686,15.12698 40.96891,15.12699 61.13822,44.75066 20.79961,28.99339 20.79961,73.11379 0,27.1025 -9.45437,49.793 -8.82407,22.6904 -25.84193,40.3386 -17.01786,17.6481 -40.96891,30.8842 L 891.8617,1341.6635 H 753.82796 l -95.17394,-163.8757 h -30.88426 v 163.8757 H 506.12359 V 891.63567 Z m -1.89087,92.02249 h -23.95106 v 102.73744 h 22.69048 q 27.7328,0 45.38095,-11.9755 18.27844,-12.6059 18.27844,-44.1204 0,-14.4967 -6.30291,-24.5814 -6.30291,-10.71491 -20.16931,-16.38753 -13.86641,-5.67261 -35.92659,-5.67261 z m 477.13028,358.00534 -92.0225,-323.9696 h -2.5211 q 1.2606,12.6058 2.5211,34.0357 1.2606,21.4299 2.5212,46.6415 1.2606,24.5814 1.2606,47.9021 v 195.3903 H 932.83063 V 891.63567 h 161.98477 l 93.9134,319.55753 h 2.5211 l 92.0225,-319.55753 h 161.9848 v 450.02783 h -111.5615 v -197.2811 q 0,-21.4299 0.6303,-45.381 0.6303,-24.5813 1.8909,-46.0112 1.2606,-22.0602 1.8908,-34.666 h -2.5211 l -90.7619,323.3393 z"
         id="text1"
         aria-label="ARM" /><path
         style="font-size:1049.84px;font-family:'BTSE + PS2 FONT';-inkscape-font-specification:'BTSE + PS2 FONT';fill:url(#linearGradient3);stroke-width:2.73396"
         d="m 1487.0947,1341.6635 h 401.8919 V 939.77159 H 2240.642 V 889.53511 H 1838.7501 V 1291.427 h -351.6554 z m 799.6828,-452.12839 h 100.473 l 653.0743,452.12839 h -100.473 z m 0,452.12839 h 100.473 l 653.0743,-452.12839 h -100.473 z m 799.6828,-452.12839 v 50.23648 h 703.3108 V 1090.481 h -703.3108 v 251.1825 h 753.5473 v -50.2365 h -703.3108 v -150.7095 h 703.3108 V 889.53511 Z"
         id="text2"
         aria-label="SX2" /></g><path
       style="font-weight:300;font-size:3.175px;font-family:roboto;-inkscape-font-specification:'roboto Light';fill:#c7c7c7;stroke-width:2.3564;stroke-linecap:round;stroke-linejoin:round;paint-order:stroke fill markers"
       d="m 40.155759,5.0880747 h -0.511597 l 0.0031,-0.1627808 h 0.508496 q 0.243396,0 0.418579,-0.1085205 0.176733,-0.1100708 0.272851,-0.3038574 0.09612,-0.1937866 0.09612,-0.449585 V 3.8524912 q 0,-0.1953369 -0.05581,-0.3534668 -0.05426,-0.1581299 -0.15658,-0.269751 -0.102319,-0.1131713 -0.244946,-0.1736328 -0.141077,-0.060461 -0.31626,-0.060461 H 39.63486 v -0.164331 h 0.534851 q 0.21084,0 0.386023,0.072864 0.176734,0.071314 0.305408,0.2077393 0.130225,0.1348755 0.199988,0.3240112 0.07131,0.1891357 0.07131,0.4216797 V 4.063331 q 0,0.232544 -0.07131,0.4216797 -0.06976,0.1891358 -0.199988,0.3240113 -0.130225,0.1348754 -0.308508,0.2077392 -0.178284,0.071313 -0.396875,0.071313 z M 39.729428,2.8308482 V 5.0880747 H 39.538742 V 2.8308482 Z m 1.74408,1.444873 v -0.05116 q 0,-0.1829346 0.05271,-0.3379638 0.05271,-0.1550293 0.150378,-0.2682007 0.09922,-0.1131714 0.237195,-0.1751831 0.137976,-0.063562 0.306958,-0.063562 0.170532,0 0.308508,0.063562 0.137976,0.062012 0.237195,0.1751831 0.09922,0.1131714 0.151929,0.2682007 0.05271,0.1550292 0.05271,0.3379638 v 0.05116 q 0,0.1829345 -0.05271,0.3379638 -0.05271,0.153479 -0.151929,0.2666504 -0.09767,0.1131714 -0.235644,0.1767334 -0.137977,0.062012 -0.306958,0.062012 -0.170533,0 -0.308509,-0.062012 Q 41.777365,4.9935068 41.678146,4.8803354 41.578928,4.767164 41.526218,4.613685 41.473508,4.4586557 41.473508,4.2757212 Z m 0.184485,-0.05116 v 0.05116 q 0,0.1379761 0.03721,0.2619995 0.03721,0.1224731 0.10852,0.2185913 0.07131,0.094568 0.176734,0.1488281 0.105419,0.05426 0.243396,0.05426 0.136425,0 0.240295,-0.05426 0.10542,-0.05426 0.176733,-0.1488281 0.07131,-0.096118 0.106971,-0.2185913 0.03721,-0.1240234 0.03721,-0.2619995 v -0.05116 q 0,-0.1364258 -0.03721,-0.2588989 -0.03566,-0.1224732 -0.108521,-0.2185913 -0.07131,-0.096118 -0.176733,-0.1519287 -0.10542,-0.055811 -0.241846,-0.055811 -0.136426,0 -0.241846,0.055811 -0.103869,0.055811 -0.176733,0.1519287 -0.07131,0.096118 -0.108521,0.2185913 -0.03566,0.1224731 -0.03566,0.2588989 z m 2.316137,0.7348389 q 0.117822,0 0.220142,-0.043408 0.103869,-0.044958 0.170532,-0.1317749 0.06821,-0.088367 0.07751,-0.2154908 h 0.176733 q -0.0078,0.1596802 -0.09767,0.2852539 -0.08837,0.1240235 -0.232544,0.195337 -0.142627,0.069763 -0.31471,0.069763 -0.175183,0 -0.310058,-0.063562 -0.133326,-0.063562 -0.223243,-0.1767334 -0.08992,-0.1147216 -0.136425,-0.2666504 -0.04496,-0.153479 -0.04496,-0.3302123 V 4.21681 q 0,-0.1767333 0.04496,-0.3286621 0.04651,-0.153479 0.136425,-0.2666503 0.08992,-0.1147217 0.223243,-0.1782837 0.133325,-0.063562 0.308508,-0.063562 0.179834,0 0.322461,0.072864 0.144177,0.072864 0.229443,0.206189 0.08682,0.1333252 0.09457,0.3162597 h -0.176733 q -0.0078,-0.1348754 -0.07131,-0.2325439 -0.06356,-0.097668 -0.167431,-0.1503784 -0.10387,-0.05271 -0.230994,-0.05271 -0.142627,0 -0.243396,0.055811 -0.100769,0.05426 -0.164331,0.1503784 -0.06201,0.094568 -0.09147,0.217041 -0.02946,0.1209229 -0.02946,0.254248 v 0.065112 q 0,0.1348754 0.0279,0.2573486 0.02946,0.1209228 0.09147,0.2154907 0.06356,0.094568 0.164331,0.1503784 0.102319,0.05426 0.246496,0.05426 z m 2.023132,-0.2992066 q 0,-0.068213 -0.03411,-0.1348755 -0.03411,-0.066663 -0.131775,-0.1224731 -0.09612,-0.05581 -0.283703,-0.094568 -0.139527,-0.031006 -0.249598,-0.069763 -0.10852,-0.038757 -0.182934,-0.093018 -0.07441,-0.05426 -0.113172,-0.1302246 -0.03876,-0.075964 -0.03876,-0.179834 0,-0.093018 0.04031,-0.1751831 0.04186,-0.083716 0.117822,-0.1457276 0.07751,-0.063562 0.186035,-0.099219 0.110071,-0.035657 0.246497,-0.035657 0.193786,0 0.331762,0.066663 0.139527,0.065112 0.212391,0.1782836 0.07441,0.1131714 0.07441,0.2557984 h -0.184485 q 0,-0.086816 -0.05116,-0.1643311 -0.04961,-0.077515 -0.147278,-0.127124 -0.09612,-0.049609 -0.235644,-0.049609 -0.144178,0 -0.234095,0.043408 -0.08992,0.043408 -0.131774,0.1100708 -0.04031,0.066663 -0.04031,0.1379761 0,0.055811 0.01705,0.1023193 0.0186,0.044959 0.06511,0.083716 0.04806,0.038757 0.136426,0.072864 0.08837,0.034107 0.229444,0.066663 0.203088,0.044958 0.331762,0.1100708 0.130225,0.063562 0.192237,0.1581299 0.06201,0.093018 0.06201,0.2263428 0,0.1038696 -0.04341,0.190686 -0.04341,0.085266 -0.125574,0.1472778 -0.08062,0.062012 -0.195337,0.096118 -0.113171,0.034106 -0.254248,0.034106 -0.21239,0 -0.359668,-0.069763 -0.145727,-0.071313 -0.221691,-0.1860352 -0.07441,-0.116272 -0.07441,-0.2464966 h 0.184484 q 0.0093,0.1302246 0.08217,0.206189 0.07286,0.074414 0.178284,0.1054199 0.10697,0.031006 0.210839,0.031006 0.142627,0 0.238746,-0.041858 0.09612,-0.041858 0.145727,-0.1100708 0.04961,-0.068213 0.04961,-0.1472779 z"
       id="text3"
       aria-label="Docs" /></g></svg>
